<svg xmlns="http://www.w3.org/2000/svg" viewBox="0 0 18.67 18.67"><defs><style>.cls-1{fill:#303030;fill-rule:evenodd;}</style></defs><title>illustrator</title><g id="Warstwa_2" data-name="Warstwa 2"><g id="Warstwa_1-2" data-name="Warstwa 1"><path class="cls-1" d="M7.64,6.3c-.15.59-1,4-1,4H8.77s-1-3.38-1.11-4Zm0,0"/><path class="cls-1" d="M0,0V18.67H18.67V0ZM9.85,14.42l-.76-2.51H6.29l-.7,2.51H3.3l3-9.78h2.9l3,9.78Zm5.45,0H13.09V7.33h2.21Zm-1.12-8A1.08,1.08,0,0,1,13,5.36a1.08,1.08,0,0,1,1.16-1.12,1.11,1.11,0,1,1,0,2.22Zm0,0"/></g></g></svg>