<svg xmlns="http://www.w3.org/2000/svg" viewBox="0 0 18.67 18.67"><defs><style>.cls-1{fill:#303030;fill-rule:evenodd;}</style></defs><title>photoshop</title><g id="Warstwa_2" data-name="Warstwa 2"><g id="Warstwa_1-2" data-name="Warstwa 1"><path class="cls-1" d="M6.13,5.94A3.7,3.7,0,0,0,5.2,6V9A3.63,3.63,0,0,0,6,9c1.2,0,1.94-.61,1.94-1.63S7.25,5.94,6.13,5.94Zm0,0"/><path class="cls-1" d="M0,0V18.67H18.67V0ZM9.2,9.71a4.61,4.61,0,0,1-3.23,1,5.75,5.75,0,0,1-.77,0v3.56H3V4.45a18.58,18.58,0,0,1,3-.21,4.74,4.74,0,0,1,3,.8,2.89,2.89,0,0,1,1.07,2.31A3.17,3.17,0,0,1,9.2,9.71Zm3.37,4.71a5.09,5.09,0,0,1-2.33-.5l.4-1.61a4.42,4.42,0,0,0,1.94.55c.68,0,1-.24,1-.61s-.22-.54-1.06-.83c-1.5-.5-2.07-1.31-2.06-2.17,0-1.34,1.15-2.36,2.94-2.36a4.84,4.84,0,0,1,2,.41L15,8.85a3.56,3.56,0,0,0-1.57-.42c-.55,0-.85.22-.85.59s.28.52,1.16.83c1.38.47,2,1.17,2,2.23,0,1.35-1.07,2.34-3.13,2.34Zm0,0"/></g></g></svg>